<?xml version="1.0" encoding="UTF-8" ?>
<!DOCTYPE svg PUBLIC "-//W3C//DTD SVG 1.1//EN" "http://www.w3.org/Graphics/SVG/1.1/DTD/svg11.dtd">
<svg width="1233pt" height="871pt" viewBox="0 0 1233 871" version="1.1" xmlns="http://www.w3.org/2000/svg">
<g id="#39ad49ff">
<path fill="#39ad49" opacity="1.00" d=" M 729.45 0.00 L 765.48 0.00 C 765.33 0.38 765.03 1.14 764.88 1.52 C 764.55 3.33 764.36 5.18 764.31 7.02 C 764.43 28.34 764.29 49.65 764.33 70.97 C 775.77 71.57 787.31 70.27 798.68 71.89 C 798.95 83.05 798.86 94.21 798.81 105.37 C 775.86 105.53 752.90 105.00 729.97 105.64 C 730.12 84.76 730.05 63.88 730.10 43.00 C 730.04 40.55 729.71 38.12 729.42 35.69 C 728.99 23.81 728.41 11.88 729.45 0.00 Z" />
<path fill="#39ad49" opacity="1.00" d=" M 695.41 380.58 C 695.39 369.29 695.30 358.00 695.46 346.71 C 718.44 346.76 741.42 346.72 764.40 346.73 C 764.66 358.37 764.51 370.01 764.53 381.65 C 764.68 393.23 764.25 404.82 764.77 416.40 C 764.69 416.40 764.52 416.40 764.43 416.40 C 753.25 416.76 742.08 416.61 730.90 416.41 C 729.71 425.25 730.72 434.14 731.14 442.99 C 731.10 445.41 731.52 448.08 730.16 450.25 L 729.84 450.43 C 718.49 450.52 707.14 450.44 695.79 450.45 C 695.37 427.81 695.76 405.16 695.60 382.52 C 693.91 381.94 692.24 381.34 690.55 380.84 C 692.16 380.74 693.79 380.66 695.41 380.58 Z" />
<path fill="#39ad49" opacity="1.00" d=" M 799.02 346.76 C 810.47 347.91 822.03 346.75 833.52 347.39 C 833.56 358.71 833.21 370.05 833.66 381.36 C 835.01 381.87 836.50 381.72 837.94 381.79 C 847.97 381.70 858.00 381.75 868.03 381.74 C 867.80 392.91 867.91 404.09 868.17 415.26 C 856.54 415.20 844.91 415.39 833.28 415.15 C 834.23 406.45 833.39 397.68 833.73 388.95 C 833.52 386.70 834.36 384.02 832.80 382.13 C 830.93 381.49 828.93 381.61 827.01 381.58 C 817.78 381.72 808.56 381.58 799.34 381.66 C 799.10 370.03 799.60 358.38 799.02 346.76 Z" />
<path fill="#39ad49" opacity="1.00" d=" M 971.68 346.74 C 982.92 346.74 994.17 346.71 1005.41 346.76 C 1005.29 358.49 1005.43 370.23 1005.31 381.97 C 1017.33 382.98 1029.41 381.91 1041.45 382.60 C 1041.00 393.32 1042.24 404.16 1040.71 414.80 C 1040.61 415.28 1040.42 416.23 1040.32 416.71 C 1017.58 416.02 994.83 417.27 972.10 416.18 C 971.30 404.67 972.44 393.15 971.82 381.64 C 971.90 370.01 972.36 358.36 971.68 346.74 Z" />
</g>
<g id="#4ecf34ff">
<path fill="#4ecf34" opacity="1.00" d=" M 764.31 7.02 C 764.36 5.18 764.55 3.33 764.88 1.52 C 779.93 1.87 794.98 1.58 810.03 1.67 C 864.05 1.60 918.07 1.81 972.09 1.55 C 972.52 24.63 972.19 47.72 972.28 70.80 C 960.57 70.88 948.87 70.87 937.16 70.78 C 937.16 59.38 937.16 47.98 937.16 36.58 C 914.18 36.36 891.20 36.41 868.22 36.36 C 868.13 47.84 868.33 59.33 868.11 70.80 C 867.78 82.32 868.09 93.85 868.03 105.37 C 844.96 105.37 821.88 105.37 798.81 105.37 C 798.86 94.21 798.95 83.05 798.68 71.89 C 787.31 70.27 775.77 71.57 764.33 70.97 C 764.29 49.65 764.43 28.34 764.31 7.02 Z" />
<path fill="#4ecf34" opacity="1.00" d=" M 1076.03 310.48 C 1077.50 316.87 1076.51 323.48 1076.79 329.98 C 1076.80 347.54 1076.75 365.11 1076.81 382.67 C 1065.02 382.65 1053.23 382.79 1041.45 382.60 C 1029.41 381.91 1017.33 382.98 1005.31 381.97 C 1005.43 370.23 1005.29 358.49 1005.41 346.76 C 1005.61 335.39 1005.03 323.98 1005.70 312.63 L 1006.26 311.02 L 1006.43 312.50 C 1029.65 312.55 1052.89 312.60 1076.11 312.22 C 1076.09 311.79 1076.05 310.92 1076.03 310.48 Z" />
<path fill="#4ecf34" opacity="1.00" d=" M 902.72 347.20 C 914.29 347.29 925.87 347.14 937.45 347.29 C 936.49 358.66 937.98 370.13 936.59 381.47 C 925.82 381.74 915.04 381.74 904.27 381.48 C 903.63 382.05 903.00 382.62 902.39 383.21 C 902.72 393.87 902.70 404.54 902.50 415.20 C 891.06 415.35 879.61 415.22 868.17 415.26 C 867.91 404.09 867.80 392.91 868.03 381.74 C 879.19 381.90 890.37 381.40 901.52 382.01 C 902.01 381.53 902.51 381.05 903.02 380.58 C 902.42 369.47 902.96 358.32 902.72 347.20 Z" />
</g>
<g id="#2d8739ff">
<path fill="#2d8739" opacity="1.00" d=" M 695.39 36.60 C 706.73 35.93 718.14 37.14 729.42 35.69 C 729.71 38.12 730.04 40.55 730.10 43.00 C 730.05 63.88 730.12 84.76 729.97 105.64 L 729.74 105.66 C 722.52 106.62 715.24 106.08 708.00 106.24 C 703.76 106.36 699.53 106.14 695.35 105.49 C 695.43 82.53 695.34 59.56 695.39 36.60 Z" />
<path fill="#2d8739" opacity="1.00" d=" M 660.66 381.64 C 667.03 379.87 673.53 381.73 679.99 381.46 C 683.52 381.44 687.03 381.02 690.55 380.84 C 692.24 381.34 693.91 381.94 695.60 382.52 C 695.76 405.16 695.37 427.81 695.79 450.45 C 684.26 450.37 672.73 450.46 661.21 450.40 C 660.13 427.50 660.94 404.56 660.66 381.64 Z" />
</g>
<g id="#babababa">
<path fill="#bababa" opacity="0.73" d=" M 868.22 36.36 C 891.20 36.41 914.18 36.36 937.16 36.58 C 925.67 36.80 914.18 36.55 902.69 36.72 C 902.70 48.07 902.68 59.42 902.70 70.78 C 891.17 70.80 879.64 70.75 868.11 70.80 C 868.33 59.33 868.13 47.84 868.22 36.36 Z" />
<path fill="#bababa" opacity="0.73" d=" M 557.73 277.79 C 569.26 277.48 580.81 277.53 592.35 277.81 C 592.92 289.03 592.67 300.28 592.59 311.51 C 580.97 311.68 569.35 311.55 557.73 311.58 C 557.34 300.32 557.53 289.06 557.73 277.79 Z" />
<path fill="#bababa" opacity="0.73" d=" M 212.37 450.63 C 223.74 450.68 235.11 450.46 246.48 450.88 C 245.66 462.05 247.03 473.30 245.71 484.44 C 234.59 484.29 223.47 484.32 212.35 484.35 C 212.30 473.11 211.94 461.87 212.37 450.63 Z" />
</g>
<g id="#61616161">
<path fill="#616161" opacity="0.38" d=" M 902.69 36.72 C 914.18 36.55 925.67 36.80 937.16 36.58 C 937.16 47.98 937.16 59.38 937.16 70.78 C 925.67 70.77 914.19 70.79 902.70 70.78 C 902.68 59.42 902.70 48.07 902.69 36.72 Z" />
<path fill="#616161" opacity="0.38" d=" M 419.58 105.52 C 430.90 105.52 442.23 105.55 453.56 105.50 C 453.71 116.93 453.56 128.35 453.65 139.78 C 442.29 139.78 430.93 139.76 419.58 139.79 C 419.60 128.37 419.46 116.94 419.58 105.52 Z" />
</g>
<g id="#c7171dff">
<path fill="#c7171d" opacity="1.00" d=" M 245.28 70.74 C 247.51 70.29 249.75 69.83 252.03 69.81 C 261.90 69.79 271.77 69.88 281.65 69.78 L 281.58 70.45 C 280.83 77.30 281.26 84.18 281.19 91.05 C 281.12 105.37 281.27 119.69 281.12 134.00 C 281.15 135.80 281.13 137.63 281.68 139.36 C 282.89 140.24 284.52 140.05 285.93 140.26 C 295.79 140.72 305.67 139.78 315.52 140.55 C 316.00 151.93 315.53 163.33 315.76 174.71 C 298.51 174.62 281.27 174.70 264.02 174.66 C 258.29 174.70 252.55 174.62 246.84 175.16 C 246.69 175.28 246.38 175.53 246.23 175.65 L 245.31 176.40 C 236.19 176.31 227.06 176.39 217.94 176.37 C 215.75 176.41 213.61 175.87 211.55 175.20 C 223.21 173.82 235.03 175.74 246.67 174.08 C 246.48 151.21 246.75 128.34 246.51 105.47 C 246.24 105.44 245.70 105.38 245.43 105.35 C 245.36 93.82 245.61 82.28 245.28 70.74 Z" />
<path fill="#c7171d" opacity="1.00" d=" M 245.67 346.79 C 245.52 358.36 245.10 369.95 245.95 381.50 C 246.92 392.68 246.05 403.92 246.45 415.13 C 246.63 426.55 246.35 437.97 246.55 449.40 L 246.48 450.88 C 235.11 450.46 223.74 450.68 212.37 450.63 C 211.79 427.72 212.47 404.80 212.27 381.88 C 210.41 381.72 208.56 381.56 206.71 381.46 C 208.42 381.19 210.14 380.92 211.86 380.65 C 211.74 369.46 211.94 358.27 211.75 347.08 C 218.47 347.74 225.23 347.52 231.97 347.42 C 236.54 347.40 241.15 347.64 245.67 346.79 Z" />
<path fill="#c7171d" opacity="1.00" d=" M 282.59 347.33 C 305.07 347.38 327.54 347.19 350.02 347.23 C 350.30 358.53 349.20 369.94 350.53 381.17 C 352.30 381.68 354.17 381.72 356.01 381.76 C 365.47 381.79 374.93 381.69 384.39 381.73 C 385.22 392.96 384.48 404.23 384.82 415.48 C 373.55 415.41 362.29 415.62 351.03 415.36 C 339.87 415.16 328.71 415.26 317.55 415.31 C 315.95 403.86 317.06 392.26 316.75 380.75 C 305.46 380.67 294.17 380.72 282.89 380.73 C 282.37 369.60 282.93 358.46 282.59 347.33 Z" />
<path fill="#c7171d" opacity="1.00" d=" M 523.60 382.29 C 535.26 382.44 546.93 382.18 558.60 382.50 C 558.30 393.81 558.30 405.15 558.62 416.46 C 547.00 416.29 535.38 416.29 523.77 416.43 C 523.57 405.05 523.87 393.67 523.60 382.29 Z" />
</g>
<g id="#ed1c24ff">
<path fill="#ed1c24" opacity="1.00" d=" M 281.19 91.05 C 281.26 84.18 280.83 77.30 281.58 70.45 C 330.42 70.72 379.26 70.49 428.09 70.57 C 448.49 70.66 468.89 70.35 489.28 70.80 C 489.28 93.79 489.32 116.78 489.26 139.77 C 477.39 139.79 465.52 139.78 453.65 139.78 C 453.56 128.35 453.71 116.93 453.56 105.50 C 442.23 105.55 430.90 105.52 419.58 105.52 C 408.11 105.67 396.65 105.13 385.19 105.70 C 384.08 117.01 384.99 128.39 384.58 139.72 C 384.24 151.39 384.56 163.07 384.39 174.74 C 373.19 174.27 361.98 174.42 350.77 174.68 C 350.49 174.68 349.93 174.68 349.65 174.67 C 338.35 174.36 327.05 174.32 315.76 174.71 C 315.53 163.33 316.00 151.93 315.52 140.55 C 305.67 139.78 295.79 140.72 285.93 140.26 C 284.52 140.05 282.89 140.24 281.68 139.36 C 281.13 137.63 281.15 135.80 281.12 134.00 C 281.27 119.69 281.12 105.37 281.19 91.05 Z" />
<path fill="#ed1c24" opacity="1.00" d=" M 521.79 328.05 C 521.85 322.53 521.43 316.97 522.37 311.50 C 534.16 311.70 545.94 311.54 557.73 311.58 C 569.35 311.55 580.97 311.68 592.59 311.51 C 594.11 317.53 593.57 323.83 593.79 329.99 C 593.38 347.53 593.79 365.08 593.64 382.63 C 581.96 382.44 570.28 382.67 558.60 382.50 C 546.93 382.18 535.26 382.44 523.60 382.29 L 523.58 381.69 C 523.06 370.38 524.45 358.97 522.97 347.72 L 522.65 346.20 C 521.37 340.22 521.85 334.10 521.79 328.05 Z" />
<path fill="#ed1c24" opacity="1.00" d=" M 419.55 347.06 C 434.34 347.44 449.14 347.12 463.93 347.23 C 472.08 347.06 480.27 347.73 488.38 346.64 C 488.49 358.03 488.28 369.41 488.50 380.79 C 476.92 381.83 465.25 381.07 453.63 381.25 C 453.54 392.56 453.48 403.88 453.61 415.20 C 430.68 415.70 407.75 415.40 384.82 415.48 C 384.48 404.23 385.22 392.96 384.39 381.73 C 396.02 381.79 407.66 381.71 419.29 381.77 C 419.81 370.20 419.21 358.63 419.55 347.06 Z" />
</g>
<g id="#5bf23dff">
<path fill="#5bf23d" opacity="1.00" d=" M 868.11 70.80 C 879.64 70.75 891.17 70.80 902.70 70.78 C 914.19 70.79 925.67 70.77 937.16 70.78 C 948.87 70.87 960.57 70.88 972.28 70.80 C 995.32 70.38 1018.36 70.63 1041.41 70.58 C 1041.44 82.31 1041.36 94.04 1041.45 105.77 C 1036.00 106.56 1030.49 106.27 1025.01 106.29 C 1012.01 106.31 999.02 106.29 986.02 106.30 C 981.46 106.29 976.87 106.48 972.34 105.87 C 964.91 104.98 957.40 105.37 949.93 105.36 C 922.63 105.39 895.33 105.36 868.03 105.37 C 868.09 93.85 867.78 82.32 868.11 70.80 Z" />
</g>
<g id="#850c0eff">
<path fill="#850c0e" opacity="1.00" d=" M 245.43 105.35 C 245.70 105.38 246.24 105.44 246.51 105.47 C 246.75 128.34 246.48 151.21 246.67 174.08 C 235.03 175.74 223.21 173.82 211.55 175.20 C 212.22 151.96 211.60 128.68 211.86 105.43 C 223.05 105.44 234.24 105.07 245.43 105.35 Z" />
<path fill="#850c0e" opacity="1.00" d=" M 177.42 381.50 C 187.18 381.38 196.95 381.40 206.71 381.46 C 208.56 381.56 210.41 381.72 212.27 381.88 C 212.47 404.80 211.79 427.72 212.37 450.63 C 200.71 450.62 189.06 450.62 177.40 450.63 C 177.40 427.58 177.37 404.54 177.42 381.50 Z" />
</g>
<g id="#ab5236ff">
<path fill="#ab5236" opacity="1.00" d=" M 729.97 105.64 C 752.90 105.00 775.86 105.53 798.81 105.37 C 798.77 116.98 798.79 128.59 798.79 140.20 C 798.80 163.11 798.77 186.02 798.80 208.94 C 788.59 208.72 778.37 209.02 768.16 208.77 C 766.94 208.69 765.74 208.61 764.54 208.51 C 764.70 197.15 764.80 185.80 764.52 174.44 C 752.94 174.49 741.36 174.39 729.79 174.51 C 729.75 151.56 729.86 128.61 729.74 105.66 L 729.97 105.64 Z" />
<path fill="#ab5236" opacity="1.00" d=" M 729.79 243.71 C 741.30 243.87 752.82 243.78 764.33 243.77 C 764.78 266.76 764.41 289.76 764.57 312.76 C 741.50 312.76 718.44 312.76 695.38 312.76 C 695.40 301.09 695.33 289.42 695.42 277.75 C 706.88 277.79 718.35 277.76 729.81 277.77 C 729.76 266.42 729.80 255.06 729.79 243.71 Z" />
</g>
<g id="#ffb380ff">
<path fill="#ffb380" opacity="1.00" d=" M 798.81 105.37 C 821.88 105.37 844.96 105.37 868.03 105.37 C 895.33 105.36 922.63 105.39 949.93 105.36 C 957.40 105.37 964.91 104.98 972.34 105.87 C 972.22 117.16 972.32 128.46 972.29 139.75 C 960.95 139.70 949.59 139.97 938.26 139.61 C 926.06 139.11 913.82 139.13 901.62 139.57 C 890.55 140.08 879.46 139.73 868.39 139.79 C 856.75 139.77 845.12 139.76 833.48 139.79 C 821.92 139.97 810.34 139.54 798.79 140.20 C 798.79 128.59 798.77 116.98 798.81 105.37 Z" />
<path fill="#ffb380" opacity="1.00" d=" M 729.79 174.51 C 741.36 174.39 752.94 174.49 764.52 174.44 C 764.80 185.80 764.70 197.15 764.54 208.51 C 765.74 208.61 766.94 208.69 768.16 208.77 C 766.86 208.90 765.58 209.04 764.30 209.20 C 764.40 220.72 764.33 232.25 764.33 243.77 C 752.82 243.78 741.30 243.87 729.79 243.71 C 729.79 220.64 729.79 197.58 729.79 174.51 Z" />
<path fill="#ffb380" opacity="1.00" d=" M 246.23 175.65 C 246.38 175.53 246.69 175.28 246.84 175.16 C 246.37 186.49 246.70 197.84 246.57 209.18 C 257.96 209.23 269.35 209.16 280.74 209.22 C 280.91 220.69 280.55 232.17 280.94 243.63 C 281.67 255.12 280.77 266.62 281.11 278.11 C 265.41 278.06 249.72 278.42 234.02 278.30 C 228.79 278.31 223.52 278.61 218.33 277.76 C 227.50 277.43 236.69 277.69 245.86 277.63 C 246.99 257.77 245.99 237.85 246.39 217.97 C 246.66 211.61 245.32 205.31 245.69 198.96 C 246.18 191.20 244.87 183.36 246.23 175.65 Z" />
<path fill="#ffb380" opacity="1.00" d=" M 315.76 174.71 C 327.05 174.32 338.35 174.36 349.65 174.67 C 349.76 186.14 349.67 197.61 349.70 209.08 C 338.37 208.73 327.03 208.95 315.70 209.12 C 315.73 197.65 315.64 186.18 315.76 174.71 Z" />
<path fill="#ffb380" opacity="1.00" d=" M 385.12 174.80 C 407.92 175.14 430.74 174.55 453.54 175.07 C 453.78 186.10 453.34 197.14 453.75 208.16 C 441.93 208.33 430.10 207.76 418.31 208.58 C 407.29 209.36 396.23 208.63 385.19 209.00 C 385.12 197.60 385.30 186.19 385.12 174.80 Z" />
<path fill="#ffb380" opacity="1.00" d=" M 799.11 244.09 C 810.53 243.46 821.98 243.89 833.41 243.83 C 833.53 255.26 833.48 266.70 833.44 278.14 C 822.04 277.77 810.62 278.80 799.22 278.07 C 799.14 266.74 799.36 255.41 799.11 244.09 Z" />
<path fill="#ffb380" opacity="1.00" d=" M 315.77 278.35 C 327.34 278.39 338.91 278.23 350.48 278.43 C 350.39 289.78 350.50 301.13 350.41 312.48 C 371.28 312.55 392.14 312.79 413.01 312.65 C 438.45 312.32 463.88 312.82 489.32 312.58 C 489.25 323.91 489.30 335.24 489.30 346.57 C 489.07 346.59 488.61 346.63 488.38 346.64 C 480.27 347.73 472.08 347.06 463.93 347.23 C 449.14 347.12 434.34 347.44 419.55 347.06 C 396.83 346.35 374.07 347.21 351.35 346.59 C 349.18 337.57 350.83 328.19 350.41 319.02 C 350.21 316.82 350.95 312.82 347.93 312.40 C 337.37 311.94 326.76 312.75 316.21 311.92 C 315.51 300.74 316.13 289.53 315.77 278.35 Z" />
<path fill="#ffb380" opacity="1.00" d=" M 834.15 278.18 C 880.19 278.58 926.24 278.20 972.29 278.37 C 972.28 289.83 972.29 301.30 972.28 312.76 C 960.77 312.69 949.25 312.90 937.74 312.66 C 924.51 311.89 911.25 312.47 898.00 312.30 C 876.75 312.10 855.49 312.71 834.26 311.89 C 833.63 300.67 833.85 289.41 834.15 278.18 Z" />
</g>
<g id="#c2c2c2c2">
<path fill="#c2c2c2" opacity="0.76" d=" M 385.19 105.70 C 396.65 105.13 408.11 105.67 419.58 105.52 C 419.46 116.94 419.60 128.37 419.58 139.79 C 407.91 139.76 396.25 139.86 384.58 139.72 C 384.99 128.39 384.08 117.01 385.19 105.70 Z" />
<path fill="#c2c2c2" opacity="0.76" d=" M 1040.93 277.68 C 1052.58 277.55 1064.24 277.50 1075.89 277.82 C 1075.94 288.70 1075.66 299.60 1076.03 310.48 C 1076.05 310.92 1076.09 311.79 1076.11 312.22 C 1064.38 310.94 1052.53 312.13 1040.76 311.58 C 1040.83 300.28 1040.55 288.98 1040.93 277.68 Z" />
</g>
<g id="#ff6b98ff">
<path fill="#ff6b98" opacity="1.00" d=" M 901.62 139.57 C 913.82 139.13 926.06 139.11 938.26 139.61 C 938.38 150.99 938.29 162.37 938.32 173.74 C 949.63 173.54 960.95 173.43 972.27 173.50 C 984.00 173.49 995.72 173.51 1007.45 173.49 C 1007.57 197.17 1007.22 220.86 1007.63 244.54 C 1001.15 245.76 994.51 245.53 987.99 244.91 C 982.84 245.26 977.53 246.01 972.47 244.71 C 970.36 244.16 968.24 243.57 966.06 243.59 C 956.37 243.43 946.69 243.67 937.00 243.72 C 937.32 232.25 937.54 220.75 936.92 209.29 C 925.68 208.79 914.43 208.96 903.19 209.32 C 902.97 209.79 902.51 210.74 902.28 211.21 C 902.05 208.81 901.75 206.41 901.70 203.99 C 901.66 182.52 901.84 161.04 901.62 139.57 Z" />
</g>
<g id="#f16649ff">
<path fill="#f16649" opacity="1.00" d=" M 384.39 174.74 C 384.56 163.07 384.24 151.39 384.58 139.72 C 396.25 139.86 407.91 139.76 419.58 139.79 C 430.93 139.76 442.29 139.78 453.65 139.78 C 465.52 139.78 477.39 139.79 489.26 139.77 C 501.51 139.85 513.76 139.56 526.02 139.77 C 536.35 139.95 546.70 139.32 557.03 139.89 C 557.35 140.15 557.99 140.69 558.31 140.96 C 558.59 152.14 558.32 163.35 558.43 174.54 C 556.01 175.09 553.56 175.62 551.08 175.49 C 530.49 175.14 509.88 175.79 489.32 175.17 C 477.44 174.00 465.43 174.22 453.54 175.07 C 430.74 174.55 407.92 175.14 385.12 174.80 L 384.39 174.74 Z" />
<path fill="#f16649" opacity="1.00" d=" M 212.89 346.83 C 223.81 346.62 234.76 346.43 245.67 346.79 C 241.15 347.64 236.54 347.40 231.97 347.42 C 225.23 347.52 218.47 347.74 211.75 347.08 L 212.89 346.83 Z" />
</g>
<g id="#ffccaaff">
<path fill="#ffccaa" opacity="1.00" d=" M 798.79 140.20 C 810.34 139.54 821.92 139.97 833.48 139.79 C 833.51 162.79 833.37 185.78 833.55 208.78 C 821.96 209.10 810.37 208.61 798.79 209.09 C 798.96 220.75 798.44 232.43 799.11 244.09 C 799.36 255.41 799.14 266.74 799.22 278.07 C 810.62 278.80 822.04 277.77 833.44 278.14 L 834.15 278.18 C 833.85 289.41 833.63 300.67 834.26 311.89 C 855.49 312.71 876.75 312.10 898.00 312.30 C 911.25 312.47 924.51 311.89 937.74 312.66 C 937.50 324.00 938.02 335.37 937.50 346.70 L 937.45 347.29 C 925.87 347.14 914.29 347.29 902.72 347.20 C 902.96 358.32 902.42 369.47 903.02 380.58 C 902.51 381.05 902.01 381.53 901.52 382.01 C 890.37 381.40 879.19 381.90 868.03 381.74 C 858.00 381.75 847.97 381.70 837.94 381.79 C 836.50 381.72 835.01 381.87 833.66 381.36 C 833.21 370.05 833.56 358.71 833.52 347.39 C 822.03 346.75 810.47 347.91 799.02 346.76 C 798.40 336.72 799.06 326.65 798.70 316.60 C 798.61 314.92 798.51 312.26 796.03 312.79 C 785.55 312.69 775.06 312.80 764.57 312.76 C 764.41 289.76 764.78 266.76 764.33 243.77 C 764.33 232.25 764.40 220.72 764.30 209.20 C 765.58 209.04 766.86 208.90 768.16 208.77 C 778.37 209.02 788.59 208.72 798.80 208.94 C 798.77 186.02 798.80 163.11 798.79 140.20 Z" />
<path fill="#ffccaa" opacity="1.00" d=" M 868.39 139.79 C 879.46 139.73 890.55 140.08 901.62 139.57 C 901.84 161.04 901.66 182.52 901.70 203.99 C 901.75 206.41 902.05 208.81 902.28 211.21 C 902.93 222.03 902.47 232.88 902.56 243.71 C 879.59 243.52 856.61 243.77 833.63 243.58 C 833.67 232.13 833.80 220.67 833.57 209.22 C 845.18 209.19 856.80 209.22 868.42 209.20 C 868.39 186.06 868.45 162.93 868.39 139.79 Z" />
<path fill="#ffccaa" opacity="1.00" d=" M 315.70 209.12 C 327.03 208.95 338.37 208.73 349.70 209.08 C 349.60 220.34 349.94 231.60 349.50 242.85 C 350.06 243.38 350.63 243.90 351.20 244.43 C 362.38 243.55 373.65 244.84 384.80 243.78 C 385.55 239.54 385.11 235.22 385.04 230.95 C 384.68 223.63 385.23 216.32 385.19 209.00 C 396.23 208.63 407.29 209.36 418.31 208.58 C 418.85 220.61 417.82 232.70 418.86 244.71 C 419.99 255.84 419.15 267.07 419.33 278.24 C 404.89 277.87 390.44 278.33 376.00 278.11 C 367.42 277.69 358.84 278.32 350.25 278.21 C 350.27 268.82 350.24 259.43 350.30 250.04 C 350.43 247.71 349.64 245.52 348.81 243.40 C 338.29 243.58 327.76 243.57 317.23 243.40 C 316.61 244.00 316.01 244.61 315.41 245.23 C 315.73 256.27 315.24 267.31 315.77 278.35 C 316.13 289.53 315.51 300.74 316.21 311.92 C 326.76 312.75 337.37 311.94 347.93 312.40 C 350.95 312.82 350.21 316.82 350.41 319.02 C 350.83 328.19 349.18 337.57 351.35 346.59 C 374.07 347.21 396.83 346.35 419.55 347.06 C 419.21 358.63 419.81 370.20 419.29 381.77 C 407.66 381.71 396.02 381.79 384.39 381.73 C 374.93 381.69 365.47 381.79 356.01 381.76 C 354.17 381.72 352.30 381.68 350.53 381.17 C 349.20 369.94 350.30 358.53 350.02 347.23 C 327.54 347.19 305.07 347.38 282.59 347.33 C 282.37 346.92 281.91 346.09 281.68 345.68 C 280.34 342.64 280.85 339.23 280.76 336.01 C 280.88 328.36 280.53 320.71 280.95 313.07 C 281.58 301.44 281.28 289.75 281.11 278.11 C 280.77 266.62 281.67 255.12 280.94 243.63 C 292.15 243.89 303.39 243.14 314.58 244.05 C 315.06 243.54 315.54 243.04 316.03 242.53 C 315.30 231.41 315.88 220.25 315.70 209.12 Z" />
</g>
<g id="#2e0d1eff">
<path fill="#2e0d1e" opacity="1.00" d=" M 833.48 139.79 C 845.12 139.76 856.75 139.77 868.39 139.79 C 868.45 162.93 868.39 186.06 868.42 209.20 C 856.80 209.22 845.18 209.19 833.57 209.22 L 833.55 208.78 C 833.37 185.78 833.51 162.79 833.48 139.79 Z" />
<path fill="#2e0d1e" opacity="1.00" d=" M 938.26 139.61 C 949.59 139.97 960.95 139.70 972.29 139.75 C 972.28 151.00 972.31 162.25 972.27 173.50 C 960.95 173.43 949.63 173.54 938.32 173.74 C 938.29 162.37 938.38 150.99 938.26 139.61 Z" />
<path fill="#2e0d1e" opacity="1.00" d=" M 1041.55 416.73 C 1052.64 416.68 1063.74 416.60 1074.84 416.77 C 1075.42 425.18 1074.78 433.60 1074.89 442.01 C 1074.96 468.00 1074.81 494.00 1074.96 519.99 C 1063.86 519.69 1052.75 519.84 1041.65 519.91 C 1041.52 507.89 1042.22 495.81 1041.26 483.83 C 1040.44 478.92 1040.77 473.94 1040.76 468.99 C 1040.80 462.73 1040.52 456.46 1041.08 450.22 C 1041.85 439.07 1041.26 427.89 1041.55 416.73 Z" />
<path fill="#2e0d1e" opacity="1.00" d=" M 695.58 485.19 L 696.09 485.11 C 707.20 487.17 718.56 485.73 729.79 486.16 C 729.59 497.00 730.19 507.86 729.45 518.69 C 728.87 541.98 728.98 565.32 730.28 588.59 C 718.68 589.30 707.01 588.78 695.39 588.85 C 695.48 554.30 695.15 519.74 695.58 485.19 Z" />
</g>
<g id="#260817ff">
<path fill="#260817" opacity="1.00" d=" M 453.54 175.07 C 465.43 174.22 477.44 174.00 489.32 175.17 C 489.28 186.18 489.25 197.19 489.34 208.19 C 477.47 208.15 465.61 208.20 453.75 208.16 C 453.34 197.14 453.78 186.10 453.54 175.07 Z" />
<path fill="#260817" opacity="1.00" d=" M 350.77 174.68 C 361.98 174.42 373.19 174.27 384.39 174.74 C 384.27 197.58 384.39 220.42 384.26 243.27 C 373.09 243.39 361.91 243.28 350.74 243.34 C 350.82 220.45 350.71 197.57 350.77 174.68 Z" />
<path fill="#260817" opacity="1.00" d=" M 558.62 416.46 C 559.89 415.56 561.48 415.79 562.96 415.78 C 572.72 415.99 582.50 414.53 592.22 415.97 C 593.36 428.61 592.69 441.33 592.68 454.00 C 592.94 465.31 592.92 476.64 592.61 487.95 C 593.04 498.60 592.73 509.25 592.85 519.90 C 581.41 519.75 569.98 519.69 558.54 519.83 C 558.29 507.93 558.49 496.02 558.43 484.11 C 558.43 477.41 558.43 470.72 558.42 464.02 C 558.36 458.94 558.87 453.80 557.74 448.81 C 556.67 438.31 557.66 427.70 557.23 417.17 C 557.58 416.99 558.27 416.64 558.62 416.46 Z" />
<path fill="#260817" opacity="1.00" d=" M 211.85 485.62 C 223.36 485.69 234.86 485.27 246.37 485.77 C 245.28 491.80 245.68 497.94 245.64 504.03 C 245.68 509.52 245.38 515.02 245.96 520.50 C 247.23 531.85 245.11 543.36 247.18 554.67 C 247.92 566.05 247.35 577.47 247.57 588.87 C 235.65 588.96 223.74 588.89 211.83 588.91 C 211.84 554.48 211.80 520.05 211.85 485.62 Z" />
</g>
<g id="#a7492fff">
<path fill="#a7492f" opacity="1.00" d=" M 246.84 175.16 C 252.55 174.62 258.29 174.70 264.02 174.66 C 281.27 174.70 298.51 174.62 315.76 174.71 C 315.64 186.18 315.73 197.65 315.70 209.12 C 315.88 220.25 315.30 231.41 316.03 242.53 C 315.54 243.04 315.06 243.54 314.58 244.05 C 303.39 243.14 292.15 243.89 280.94 243.63 C 280.55 232.17 280.91 220.69 280.74 209.22 C 269.35 209.16 257.96 209.23 246.57 209.18 C 246.70 197.84 246.37 186.49 246.84 175.16 Z" />
<path fill="#a7492f" opacity="1.00" d=" M 211.82 277.80 C 213.99 277.76 216.17 277.55 218.33 277.76 C 223.52 278.61 228.79 278.31 234.02 278.30 C 249.72 278.42 265.41 278.06 281.11 278.11 C 281.28 289.75 281.58 301.44 280.95 313.07 C 278.98 312.86 277.02 312.74 275.05 312.74 C 253.98 312.79 232.91 312.74 211.83 312.77 C 211.82 301.11 211.84 289.45 211.82 277.80 Z" />
</g>
<g id="#926357ff">
<path fill="#926357" opacity="1.00" d=" M 349.65 174.67 C 349.93 174.68 350.49 174.68 350.77 174.68 C 350.71 197.57 350.82 220.45 350.74 243.34 C 361.91 243.28 373.09 243.39 384.26 243.27 C 384.39 220.42 384.27 197.58 384.39 174.74 L 385.12 174.80 C 385.30 186.19 385.12 197.60 385.19 209.00 C 385.23 216.32 384.68 223.63 385.04 230.95 C 385.11 235.22 385.55 239.54 384.80 243.78 C 373.65 244.84 362.38 243.55 351.20 244.43 C 350.63 243.90 350.06 243.38 349.50 242.85 C 349.94 231.60 349.60 220.34 349.70 209.08 C 349.67 197.61 349.76 186.14 349.65 174.67 Z" />
</g>
<g id="#f05887ff">
<path fill="#f05887" opacity="1.00" d=" M 418.31 208.58 C 430.10 207.76 441.93 208.33 453.75 208.16 C 465.61 208.20 477.47 208.15 489.34 208.19 C 501.12 208.21 512.90 208.19 524.68 208.20 C 524.69 231.56 524.55 254.92 524.75 278.27 C 524.21 278.46 523.13 278.85 522.59 279.04 C 516.75 279.61 510.86 279.17 505.01 279.30 C 499.89 279.18 494.74 279.63 489.64 279.01 C 486.80 278.39 483.91 277.99 481.00 278.09 C 472.04 278.27 463.07 278.02 454.11 278.25 C 453.93 266.81 454.29 255.36 453.90 243.93 C 444.93 243.46 435.95 243.61 426.98 243.59 C 424.22 243.56 421.52 244.08 418.86 244.71 C 417.82 232.70 418.85 220.61 418.31 208.58 Z" />
</g>
<g id="#7e2553ff">
<path fill="#7e2553" opacity="1.00" d=" M 798.79 209.09 C 810.37 208.61 821.96 209.10 833.55 208.78 L 833.57 209.22 C 833.80 220.67 833.67 232.13 833.63 243.58 C 856.61 243.77 879.59 243.52 902.56 243.71 C 914.04 243.85 925.52 243.84 937.00 243.72 C 946.69 243.67 956.37 243.43 966.06 243.59 C 968.24 243.57 970.36 244.16 972.47 244.71 C 972.07 255.92 972.39 267.15 972.29 278.37 C 926.24 278.20 880.19 278.58 834.15 278.18 L 833.44 278.14 C 833.48 266.70 833.53 255.26 833.41 243.83 C 821.98 243.89 810.53 243.46 799.11 244.09 C 798.44 232.43 798.96 220.75 798.79 209.09 Z" />
</g>
<g id="#ff487fff">
<path fill="#ff487f" opacity="1.00" d=" M 903.19 209.32 C 914.43 208.96 925.68 208.79 936.92 209.29 C 937.54 220.75 937.32 232.25 937.00 243.72 C 925.52 243.84 914.04 243.85 902.56 243.71 C 902.47 232.88 902.93 222.03 902.28 211.21 C 902.51 210.74 902.97 209.79 903.19 209.32 Z" />
</g>
<g id="#7b1b4dff">
<path fill="#7b1b4d" opacity="1.00" d=" M 315.41 245.23 C 316.01 244.61 316.61 244.00 317.23 243.40 C 327.76 243.57 338.29 243.58 348.81 243.40 C 349.64 245.52 350.43 247.71 350.30 250.04 C 350.24 259.43 350.27 268.82 350.25 278.21 C 358.84 278.32 367.42 277.69 376.00 278.11 C 390.44 278.33 404.89 277.87 419.33 278.24 C 430.92 278.43 442.51 278.43 454.11 278.25 C 463.07 278.02 472.04 278.27 481.00 278.09 C 483.91 277.99 486.80 278.39 489.64 279.01 C 489.40 290.20 489.85 301.40 489.32 312.58 C 463.88 312.82 438.45 312.32 413.01 312.65 C 392.14 312.79 371.28 312.55 350.41 312.48 C 350.50 301.13 350.39 289.78 350.48 278.43 C 338.91 278.23 327.34 278.39 315.77 278.35 C 315.24 267.31 315.73 256.27 315.41 245.23 Z" />
</g>
<g id="#ee3470ff">
<path fill="#ee3470" opacity="1.00" d=" M 418.86 244.71 C 421.52 244.08 424.22 243.56 426.98 243.59 C 435.95 243.61 444.93 243.46 453.90 243.93 C 454.29 255.36 453.93 266.81 454.11 278.25 C 442.51 278.43 430.92 278.43 419.33 278.24 C 419.15 267.07 419.99 255.84 418.86 244.71 Z" />
</g>
<g id="#fff1e8ff">
<path fill="#fff1e8" opacity="1.00" d=" M 524.75 278.27 C 526.37 277.52 528.21 277.83 529.95 277.75 C 539.21 277.81 548.47 277.74 557.73 277.79 C 557.53 289.06 557.34 300.32 557.73 311.58 C 545.94 311.54 534.16 311.70 522.37 311.50 C 522.87 300.69 522.44 289.85 522.59 279.04 C 523.13 278.85 524.21 278.46 524.75 278.27 Z" />
<path fill="#fff1e8" opacity="1.00" d=" M 1006.23 277.78 C 1017.80 277.71 1029.37 277.89 1040.93 277.68 C 1040.55 288.98 1040.83 300.28 1040.76 311.58 C 1052.53 312.13 1064.38 310.94 1076.11 312.22 C 1052.89 312.60 1029.65 312.55 1006.43 312.50 L 1006.26 311.02 C 1006.27 299.94 1006.24 288.86 1006.23 277.78 Z" />
<path fill="#fff1e8" opacity="1.00" d=" M 661.21 450.40 C 672.73 450.46 684.26 450.37 695.79 450.45 C 707.14 450.44 718.49 450.52 729.84 450.43 C 729.61 450.57 729.14 450.85 728.91 450.99 C 717.83 450.30 706.72 450.74 695.63 450.71 C 695.52 462.20 695.65 473.69 695.58 485.19 C 683.96 485.99 672.30 485.57 660.66 485.41 C 660.90 474.59 660.16 463.75 661.26 452.97 C 661.25 452.33 661.22 451.04 661.21 450.40 Z" />
<path fill="#fff1e8" opacity="1.00" d=" M 177.40 450.63 C 189.06 450.62 200.71 450.62 212.37 450.63 C 211.94 461.87 212.30 473.11 212.35 484.35 C 212.23 484.67 211.97 485.30 211.85 485.62 C 200.38 485.52 188.91 485.76 177.45 485.50 C 177.33 473.87 177.42 462.25 177.40 450.63 Z" />
</g>
<g id="#0061afff">
<path fill="#0061af" opacity="1.00" d=" M 211.92 346.86 C 220.89 345.41 230.03 346.95 239.05 345.87 C 253.25 345.58 267.47 345.94 281.68 345.68 C 281.91 346.09 282.37 346.92 282.59 347.33 C 282.93 358.46 282.37 369.60 282.89 380.73 C 294.17 380.72 305.46 380.67 316.75 380.75 C 317.06 392.26 315.95 403.86 317.55 415.31 C 328.71 415.26 339.87 415.16 351.03 415.36 C 350.59 415.62 349.72 416.15 349.28 416.41 C 348.53 427.47 349.50 438.57 348.74 449.64 C 337.46 449.67 326.16 450.13 314.90 449.38 C 314.52 472.87 314.94 496.37 314.71 519.87 C 297.81 520.00 280.92 519.82 264.02 519.92 C 258.00 519.99 251.92 519.35 245.96 520.50 C 245.38 515.02 245.68 509.52 245.64 504.03 C 245.68 497.94 245.28 491.80 246.37 485.77 C 247.42 480.22 247.33 474.55 247.28 468.93 C 247.16 462.41 247.77 455.85 246.55 449.40 C 246.35 437.97 246.63 426.55 246.45 415.13 C 246.76 415.43 247.39 416.05 247.71 416.36 C 259.02 416.27 270.33 416.33 281.65 416.32 C 281.54 408.53 282.59 400.76 282.10 392.97 C 281.82 389.13 281.66 385.28 281.59 381.44 C 269.71 381.49 257.83 381.37 245.95 381.50 C 245.10 369.95 245.52 358.36 245.67 346.79 C 234.76 346.43 223.81 346.62 212.89 346.83 L 211.92 346.86 Z" />
<path fill="#0061af" opacity="1.00" d=" M 385.94 486.19 C 408.93 486.20 431.92 486.13 454.91 486.21 C 465.81 486.16 476.74 486.58 487.63 486.02 C 487.68 497.60 487.29 509.20 487.78 520.78 C 453.96 520.79 420.14 520.78 386.32 520.78 C 385.49 509.27 385.46 497.72 385.94 486.19 Z" />
</g>
<g id="#3b9ed8ff">
<path fill="#3b9ed8" opacity="1.00" d=" M 488.38 346.64 C 488.61 346.63 489.07 346.59 489.30 346.57 C 500.41 346.26 511.54 346.51 522.65 346.20 L 522.97 347.72 C 524.45 358.97 523.06 370.38 523.58 381.69 C 511.95 381.59 500.32 381.65 488.70 381.64 C 487.50 393.20 488.75 404.84 488.15 416.43 C 500.02 416.42 511.89 416.43 523.77 416.43 C 535.38 416.29 547.00 416.29 558.62 416.46 C 558.27 416.64 557.58 416.99 557.23 417.17 C 546.33 417.91 535.38 417.40 524.46 417.56 C 524.88 428.08 524.54 438.63 524.67 449.16 C 535.69 449.17 546.76 449.83 557.74 448.81 C 558.87 453.80 558.36 458.94 558.42 464.02 C 558.43 470.72 558.43 477.41 558.43 484.11 C 545.61 484.16 532.80 484.52 519.98 484.34 C 509.55 484.13 499.10 484.00 488.68 484.54 C 488.42 484.91 487.89 485.65 487.63 486.02 C 476.74 486.58 465.81 486.16 454.91 486.21 C 455.00 462.88 454.52 439.53 455.21 416.21 C 454.81 415.96 454.01 415.45 453.61 415.20 C 453.48 403.88 453.54 392.56 453.63 381.25 C 465.25 381.07 476.92 381.83 488.50 380.79 C 488.28 369.41 488.49 358.03 488.38 346.64 Z" />
<path fill="#3b9ed8" opacity="1.00" d=" M 351.06 486.19 C 362.69 486.20 374.31 486.21 385.94 486.19 C 385.46 497.72 385.49 509.27 386.32 520.78 C 386.75 532.27 386.54 543.77 386.54 555.27 C 364.36 555.06 342.18 555.66 320.00 555.44 C 318.60 555.36 317.22 555.25 315.84 555.10 C 315.68 543.98 315.53 532.85 315.86 521.73 C 318.88 521.13 321.94 520.69 325.03 520.76 C 333.61 520.86 342.20 520.91 350.78 520.66 C 351.09 509.17 350.63 497.68 351.06 486.19 Z" />
</g>
<g id="#2046c4ff">
<path fill="#2046c4" opacity="1.00" d=" M 764.40 346.73 C 775.94 346.75 787.48 346.70 799.02 346.76 C 799.60 358.38 799.10 370.03 799.34 381.66 C 787.74 381.62 776.14 381.64 764.53 381.65 C 764.51 370.01 764.66 358.37 764.40 346.73 Z" />
<path fill="#2046c4" opacity="1.00" d=" M 799.34 381.66 C 808.56 381.58 817.78 381.72 827.01 381.58 C 828.93 381.61 830.93 381.49 832.80 382.13 C 834.36 384.02 833.52 386.70 833.73 388.95 C 833.39 397.68 834.23 406.45 833.28 415.15 C 831.35 426.40 833.96 437.94 832.10 449.19 C 820.87 449.75 809.59 449.26 798.35 449.40 C 797.82 464.26 798.79 479.14 797.96 494.00 C 797.52 502.23 798.94 510.47 797.79 518.68 C 787.86 519.33 777.92 518.67 767.99 518.83 C 755.14 518.75 742.29 518.99 729.45 518.69 C 730.19 507.86 729.59 497.00 729.79 486.16 C 718.56 485.73 707.20 487.17 696.09 485.11 L 697.42 484.88 C 710.93 484.39 724.46 484.91 737.98 484.61 C 746.83 484.31 755.68 484.96 764.53 484.40 C 764.50 461.73 764.69 439.06 764.43 416.40 C 764.52 416.40 764.69 416.40 764.77 416.40 C 776.10 415.87 787.43 416.80 798.76 416.11 C 800.06 404.67 798.90 393.14 799.34 381.66 Z" />
<path fill="#2046c4" opacity="1.00" d=" M 938.31 485.64 C 949.04 484.66 959.86 486.07 970.58 484.89 C 971.03 496.78 970.91 508.69 970.64 520.58 C 964.77 520.22 958.88 519.45 953.00 520.10 C 946.98 520.75 940.97 519.59 934.95 519.81 C 922.98 519.99 910.99 519.46 899.04 520.30 C 888.85 520.39 878.66 520.28 868.47 520.34 C 867.92 508.97 868.65 497.59 868.15 486.23 C 884.44 486.27 900.73 486.22 917.03 486.24 C 924.12 486.15 931.25 486.70 938.31 485.64 Z" />
</g>
<g id="#299bffff">
<path fill="#299bff" opacity="1.00" d=" M 937.45 347.29 L 937.50 346.70 C 948.89 346.51 960.29 346.57 971.68 346.74 C 972.36 358.36 971.90 370.01 971.82 381.64 C 960.35 381.68 948.88 381.25 937.42 381.74 C 936.84 392.72 937.30 403.73 937.14 414.73 C 925.61 415.77 914.05 414.78 902.50 415.20 C 902.70 404.54 902.72 393.87 902.39 383.21 C 903.00 382.62 903.63 382.05 904.27 381.48 C 915.04 381.74 925.82 381.74 936.59 381.47 C 937.98 370.13 936.49 358.66 937.45 347.29 Z" />
<path fill="#299bff" opacity="1.00" d=" M 938.46 416.42 C 949.62 416.54 960.82 415.91 971.96 416.78 C 972.78 427.80 971.86 438.88 972.53 449.92 C 979.99 450.56 987.48 450.11 994.96 450.17 C 1010.14 450.20 1025.33 450.11 1040.51 450.22 L 1041.08 450.22 C 1040.52 456.46 1040.80 462.73 1040.76 468.99 C 1040.77 473.94 1040.44 478.92 1041.26 483.83 C 1026.52 484.94 1011.71 484.13 996.94 484.36 C 988.15 484.61 979.32 483.79 970.58 484.89 C 959.86 486.07 949.04 484.66 938.31 485.64 C 938.35 462.57 938.06 439.49 938.46 416.42 Z" />
<path fill="#299bff" opacity="1.00" d=" M 834.79 486.23 C 845.91 486.22 857.03 486.22 868.15 486.23 C 868.65 497.59 867.92 508.97 868.47 520.34 C 868.76 530.56 868.59 540.80 868.61 551.03 C 868.78 552.64 868.10 554.84 866.04 554.49 C 844.15 554.54 822.26 554.52 800.37 554.50 C 799.80 543.30 799.41 532.09 800.27 520.90 C 811.66 520.31 823.07 521.02 834.47 520.55 C 834.88 509.11 834.16 497.66 834.79 486.23 Z" />
</g>
<g id="#ff9d00ff">
<path fill="#ff9d00" opacity="1.00" d=" M 245.95 381.50 C 257.83 381.37 269.71 381.49 281.59 381.44 C 281.66 385.28 281.82 389.13 282.10 392.97 C 282.59 400.76 281.54 408.53 281.65 416.32 C 270.33 416.33 259.02 416.27 247.71 416.36 C 247.39 416.05 246.76 415.43 246.45 415.13 C 246.05 403.92 246.92 392.68 245.95 381.50 Z" />
<path fill="#ff9d00" opacity="1.00" d=" M 764.53 381.65 C 776.14 381.64 787.74 381.62 799.34 381.66 C 798.90 393.14 800.06 404.67 798.76 416.11 C 787.43 416.80 776.10 415.87 764.77 416.40 C 764.25 404.82 764.68 393.23 764.53 381.65 Z" />
</g>
<g id="#ffd900ff">
<path fill="#ffd900" opacity="1.00" d=" M 488.70 381.64 C 500.32 381.65 511.95 381.59 523.58 381.69 L 523.60 382.29 C 523.87 393.67 523.57 405.05 523.77 416.43 C 511.89 416.43 500.02 416.42 488.15 416.43 C 488.75 404.84 487.50 393.20 488.70 381.64 Z" />
<path fill="#ffd900" opacity="1.00" d=" M 937.14 414.73 C 937.30 403.73 936.84 392.72 937.42 381.74 C 948.88 381.25 960.35 381.68 971.82 381.64 C 972.44 393.15 971.30 404.67 972.10 416.18 L 971.96 416.78 C 960.82 415.91 949.62 416.54 938.46 416.42 C 938.47 415.98 938.51 415.10 938.53 414.66 L 937.14 414.73 Z" />
</g>
<g id="#2173baff">
<path fill="#2173ba" opacity="1.00" d=" M 351.03 415.36 C 362.29 415.62 373.55 415.41 384.82 415.48 C 407.75 415.40 430.68 415.70 453.61 415.20 C 454.01 415.45 454.81 415.96 455.21 416.21 C 454.52 439.53 455.00 462.88 454.91 486.21 C 431.92 486.13 408.93 486.20 385.94 486.19 C 374.31 486.21 362.69 486.20 351.06 486.19 C 350.63 497.68 351.09 509.17 350.78 520.66 C 342.20 520.91 333.61 520.86 325.03 520.76 C 321.94 520.69 318.88 521.13 315.86 521.73 C 315.53 532.85 315.68 543.98 315.84 555.10 C 312.01 554.01 307.99 554.67 304.07 554.52 C 286.05 554.36 268.04 554.81 250.03 554.73 C 249.50 555.10 248.45 555.85 247.93 556.22 C 247.74 555.83 247.37 555.05 247.18 554.67 C 245.11 543.36 247.23 531.85 245.96 520.50 C 251.92 519.35 258.00 519.99 264.02 519.92 C 280.92 519.82 297.81 520.00 314.71 519.87 C 314.94 496.37 314.52 472.87 314.90 449.38 C 326.16 450.13 337.46 449.67 348.74 449.64 C 349.50 438.57 348.53 427.47 349.28 416.41 C 349.72 416.15 350.59 415.62 351.03 415.36 Z" />
<path fill="#2173ba" opacity="1.00" d=" M 488.68 484.54 C 499.10 484.00 509.55 484.13 519.98 484.34 C 532.80 484.52 545.61 484.16 558.43 484.11 C 558.49 496.02 558.29 507.93 558.54 519.83 L 558.57 520.68 C 534.97 520.90 511.37 520.73 487.78 520.78 C 487.29 509.20 487.68 497.60 487.63 486.02 C 487.89 485.65 488.42 484.91 488.68 484.54 Z" />
</g>
<g id="#295bffff">
<path fill="#295bff" opacity="1.00" d=" M 832.10 449.19 C 833.96 437.94 831.35 426.40 833.28 415.15 C 844.91 415.39 856.54 415.20 868.17 415.26 C 879.61 415.22 891.06 415.35 902.50 415.20 C 914.05 414.78 925.61 415.77 937.14 414.73 L 938.53 414.66 C 938.51 415.10 938.47 415.98 938.46 416.42 C 938.06 439.49 938.35 462.57 938.31 485.64 C 931.25 486.70 924.12 486.15 917.03 486.24 C 900.73 486.22 884.44 486.27 868.15 486.23 C 857.03 486.22 845.91 486.22 834.79 486.23 C 834.16 497.66 834.88 509.11 834.47 520.55 C 823.07 521.02 811.66 520.31 800.27 520.90 C 799.41 532.09 799.80 543.30 800.37 554.50 L 800.36 555.42 C 777.55 555.53 754.74 555.45 731.93 555.45 C 731.77 566.38 731.97 577.31 731.84 588.24 C 731.45 588.33 730.67 588.51 730.28 588.59 C 728.98 565.32 728.87 541.98 729.45 518.69 C 742.29 518.99 755.14 518.75 767.99 518.83 C 777.92 518.67 787.86 519.33 797.79 518.68 C 798.94 510.47 797.52 502.23 797.96 494.00 C 798.79 479.14 797.82 464.26 798.35 449.40 C 809.59 449.26 820.87 449.75 832.10 449.19 Z" />
<path fill="#295bff" opacity="1.00" d=" M 970.58 484.89 C 979.32 483.79 988.15 484.61 996.94 484.36 C 1011.71 484.13 1026.52 484.94 1041.26 483.83 C 1042.22 495.81 1041.52 507.89 1041.65 519.91 C 1041.63 520.27 1041.58 520.99 1041.55 521.35 C 1017.94 520.14 994.27 521.26 970.64 520.58 C 970.91 508.69 971.03 496.78 970.58 484.89 Z" />
</g>
<g id="#374255cb">
<path fill="#374255" opacity="0.80" d=" M 1040.71 414.80 C 1052.52 415.15 1064.33 414.58 1076.13 415.15 C 1076.85 420.07 1076.63 425.06 1076.69 430.02 C 1076.72 448.68 1076.69 467.35 1076.70 486.02 C 1076.53 497.41 1077.11 508.83 1076.27 520.21 L 1074.96 519.99 C 1074.81 494.00 1074.96 468.00 1074.89 442.01 C 1074.78 433.60 1075.42 425.18 1074.84 416.77 C 1063.74 416.60 1052.64 416.68 1041.55 416.73 C 1041.26 427.89 1041.85 439.07 1041.08 450.22 L 1040.51 450.22 C 1039.32 442.52 1039.84 434.72 1039.72 426.97 C 1039.71 423.54 1039.54 420.07 1040.32 416.71 C 1040.42 416.23 1040.61 415.28 1040.71 414.80 Z" />
</g>
<g id="#7086a1f6">
<path fill="#7086a1" opacity="0.96" d=" M 246.55 449.40 C 247.77 455.85 247.16 462.41 247.28 468.93 C 247.33 474.55 247.42 480.22 246.37 485.77 C 234.86 485.27 223.36 485.69 211.85 485.62 C 211.97 485.30 212.23 484.67 212.35 484.35 C 223.47 484.32 234.59 484.29 245.71 484.44 C 247.03 473.30 245.66 462.05 246.48 450.88 L 246.55 449.40 Z" />
</g>
<g id="#c0c0c0c0">
<path fill="#c0c0c0" opacity="0.75" d=" M 729.84 450.43 L 730.16 450.25 L 730.77 449.91 C 730.02 461.36 731.20 472.83 730.57 484.28 C 721.04 484.53 711.51 484.41 701.98 484.35 C 700.44 484.36 698.91 484.53 697.42 484.88 L 696.09 485.11 L 695.58 485.19 C 695.65 473.69 695.52 462.20 695.63 450.71 C 706.72 450.74 717.83 450.30 728.91 450.99 C 729.14 450.85 729.61 450.57 729.84 450.43 Z" />
</g>
<g id="#ffffffff">
<path fill="#ffffff" opacity="1.00" d=" M 54.75 679.78 C 61.67 679.74 68.60 679.77 75.52 679.76 C 75.55 700.96 75.52 722.16 75.54 743.36 C 82.20 743.36 88.86 743.37 95.53 743.36 C 95.56 736.28 95.50 729.21 95.56 722.14 C 102.50 722.13 109.45 722.11 116.39 722.15 C 116.41 729.22 116.39 736.29 116.40 743.36 C 123.19 743.37 129.97 743.35 136.76 743.37 C 136.75 771.76 136.82 800.14 136.73 828.53 C 129.81 828.47 122.89 828.51 115.97 828.50 C 115.96 800.29 115.96 772.08 115.96 743.86 C 109.30 743.87 102.63 743.86 95.97 743.87 C 95.97 750.91 95.97 757.95 95.97 765.00 C 89.16 765.00 82.35 765.00 75.53 765.00 C 75.53 786.17 75.54 807.33 75.53 828.50 C 68.60 828.50 61.67 828.50 54.74 828.50 C 54.73 778.93 54.72 729.35 54.75 679.78 Z" />
<path fill="#ffffff" opacity="1.00" d=" M 571.97 679.79 C 578.90 679.75 585.83 679.74 592.77 679.79 C 592.77 729.36 592.76 778.93 592.77 828.50 C 572.22 828.50 551.66 828.51 531.10 828.49 C 531.09 821.47 531.10 814.45 531.10 807.44 C 524.31 807.41 517.53 807.48 510.75 807.40 C 510.72 786.07 510.73 764.74 510.74 743.42 C 517.53 743.30 524.31 743.39 531.09 743.36 C 531.12 736.29 531.06 729.23 531.13 722.16 C 544.74 722.09 558.35 722.16 571.96 722.13 C 571.97 708.01 571.96 693.90 571.97 679.79 M 531.54 743.87 C 531.53 764.91 531.53 785.96 531.53 807.00 C 545.01 807.00 558.49 807.00 571.97 807.00 C 571.96 785.95 571.96 764.91 571.97 743.86 C 558.49 743.87 545.01 743.85 531.54 743.87 Z" />
<path fill="#ffffff" opacity="1.00" d=" M 885.23 679.81 C 892.16 679.71 899.10 679.79 906.03 679.77 C 906.04 693.88 906.03 708.00 906.04 722.13 C 919.65 722.15 933.27 722.11 946.89 722.15 C 946.91 729.22 946.89 736.29 946.90 743.36 C 953.69 743.38 960.48 743.33 967.27 743.39 C 967.26 764.74 967.28 786.08 967.26 807.42 C 960.47 807.45 953.69 807.42 946.90 807.44 C 946.90 814.46 946.90 821.48 946.90 828.50 C 926.34 828.48 905.78 828.54 885.22 828.47 C 885.25 778.92 885.22 729.36 885.23 679.81 M 906.04 743.87 C 906.03 764.92 906.04 785.96 906.03 807.00 C 919.51 807.00 932.99 807.00 946.47 807.00 C 946.47 785.95 946.47 764.91 946.47 743.87 C 932.99 743.87 919.51 743.86 906.04 743.87 Z" />
<path fill="#ffffff" opacity="1.00" d=" M 606.26 684.66 C 613.18 684.60 620.11 684.64 627.04 684.64 C 627.03 691.88 627.04 699.12 627.04 706.37 C 620.10 706.34 613.17 706.42 606.24 706.32 C 606.24 699.10 606.20 691.88 606.26 684.66 Z" />
<path fill="#ffffff" opacity="1.00" d=" M 0.00 701.23 C 7.00 700.72 14.02 701.12 21.04 701.00 C 21.04 708.04 21.03 715.08 21.04 722.13 C 27.84 722.14 34.65 722.13 41.46 722.13 C 41.47 729.37 41.48 736.62 41.45 743.86 C 34.65 743.87 27.84 743.86 21.04 743.87 C 21.03 764.91 21.04 785.96 21.03 807.00 C 27.85 807.00 34.66 807.00 41.47 807.00 C 41.47 814.16 41.47 821.33 41.47 828.50 C 34.51 828.50 27.56 828.51 20.61 828.50 C 20.59 821.47 20.61 814.45 20.60 807.44 C 13.73 807.40 6.86 807.50 0.00 807.37 L 0.00 701.23 Z" />
<path fill="#ffffff" opacity="1.00" d=" M 170.67 722.14 C 184.41 722.13 198.15 722.12 211.89 722.15 C 211.92 729.22 211.89 736.29 211.90 743.36 C 218.69 743.38 225.48 743.33 232.27 743.39 C 232.26 750.59 232.28 757.79 232.26 765.00 C 225.47 765.00 218.69 765.00 211.90 765.00 C 211.90 772.06 211.90 779.12 211.90 786.19 C 198.28 786.21 184.66 786.19 171.04 786.20 C 171.03 793.13 171.04 800.06 171.03 807.00 C 184.66 807.00 198.28 807.00 211.90 807.00 C 211.89 814.17 211.92 821.34 211.89 828.51 C 198.12 828.48 184.36 828.51 170.60 828.50 C 170.60 821.48 170.60 814.46 170.60 807.44 C 163.82 807.43 157.05 807.44 150.28 807.43 C 150.19 786.08 150.23 764.74 150.26 743.40 C 157.04 743.32 163.81 743.38 170.59 743.37 C 170.64 736.29 170.52 729.21 170.67 722.14 M 171.04 743.87 C 171.04 750.76 171.01 757.66 171.05 764.55 C 184.52 764.51 198.00 764.54 211.47 764.53 C 211.46 757.64 211.47 750.75 211.47 743.87 C 197.99 743.87 184.51 743.86 171.04 743.87 Z" />
<path fill="#ffffff" opacity="1.00" d=" M 320.14 722.18 C 333.88 722.07 347.63 722.16 361.38 722.14 C 361.43 729.21 361.38 736.29 361.41 743.37 C 368.19 743.36 374.97 743.35 381.76 743.37 C 381.78 750.57 381.76 757.78 381.77 764.98 C 374.83 765.02 367.90 764.99 360.96 765.00 C 360.96 757.95 360.96 750.91 360.96 743.86 C 347.49 743.87 334.01 743.86 320.54 743.87 C 320.53 764.91 320.53 785.96 320.53 807.00 C 334.01 807.00 347.49 807.00 360.97 807.00 C 360.96 799.91 360.96 792.82 360.97 785.74 C 367.89 785.66 374.82 785.70 381.75 785.71 C 381.78 792.94 381.76 800.17 381.77 807.41 C 374.98 807.46 368.19 807.42 361.40 807.44 C 361.40 814.46 361.40 821.48 361.40 828.50 C 347.63 828.51 333.87 828.49 320.10 828.51 C 320.09 821.48 320.10 814.46 320.10 807.44 C 313.31 807.42 306.53 807.46 299.75 807.42 C 299.72 786.08 299.73 764.75 299.75 743.42 C 306.53 743.30 313.31 743.39 320.09 743.36 C 320.12 736.30 320.05 729.24 320.14 722.18 Z" />
<path fill="#ffffff" opacity="1.00" d=" M 415.67 722.14 C 436.19 722.12 456.72 722.14 477.24 722.14 C 477.30 729.21 477.23 736.30 477.29 743.38 C 484.04 743.35 490.80 743.37 497.56 743.37 C 497.57 764.72 497.57 786.08 497.56 807.43 C 490.80 807.44 484.04 807.42 477.27 807.44 C 477.26 814.46 477.27 821.48 477.27 828.50 C 456.71 828.51 436.16 828.50 415.60 828.50 C 415.60 821.48 415.60 814.46 415.60 807.44 C 408.81 807.41 402.02 807.48 395.24 807.40 C 395.24 786.06 395.19 764.73 395.26 743.40 C 402.04 743.33 408.82 743.38 415.59 743.36 C 415.64 736.29 415.52 729.21 415.67 722.14 M 416.04 743.87 C 416.03 764.92 416.04 785.96 416.03 807.00 C 436.28 807.00 456.52 807.00 476.77 807.00 C 476.76 785.95 476.77 764.91 476.77 743.87 C 456.52 743.87 436.28 743.86 416.04 743.87 Z" />
<path fill="#ffffff" opacity="1.00" d=" M 606.26 722.16 C 613.18 722.10 620.11 722.15 627.04 722.13 C 627.03 757.59 627.04 793.04 627.03 828.50 C 620.13 828.32 613.10 828.85 606.27 828.24 C 606.20 792.88 606.22 757.52 606.26 722.16 Z" />
<path fill="#ffffff" opacity="1.00" d=" M 640.25 722.17 C 660.80 722.08 681.34 722.14 701.89 722.15 C 701.92 729.22 701.89 736.29 701.90 743.36 C 708.69 743.37 715.47 743.34 722.26 743.38 C 722.27 771.75 722.26 800.13 722.27 828.50 C 715.33 828.50 708.40 828.50 701.47 828.50 C 701.46 800.29 701.47 772.08 701.47 743.87 C 687.99 743.87 674.51 743.85 661.04 743.87 C 661.03 772.08 661.04 800.29 661.03 828.50 C 654.09 828.49 647.16 828.53 640.22 828.48 C 640.26 793.04 640.20 757.61 640.25 722.17 Z" />
<path fill="#ffffff" opacity="1.00" d=" M 755.64 722.14 C 776.17 722.13 796.71 722.13 817.25 722.14 C 817.28 764.69 817.28 807.24 817.25 849.80 C 810.47 849.80 803.68 849.79 796.91 849.80 C 796.89 856.87 796.92 863.93 796.88 871.00 L 755.64 871.00 C 755.58 863.76 755.56 856.53 755.65 849.30 C 769.25 849.29 782.86 849.31 796.46 849.29 C 796.47 842.36 796.46 835.43 796.47 828.50 C 782.84 828.49 769.22 828.51 755.61 828.50 C 755.59 821.47 755.60 814.45 755.60 807.44 C 748.81 807.41 742.02 807.49 735.23 807.39 C 735.25 786.05 735.20 764.72 735.26 743.39 C 742.03 743.33 748.81 743.37 755.59 743.37 C 755.62 736.29 755.55 729.21 755.64 722.14 M 756.04 743.87 C 756.03 764.92 756.04 785.96 756.03 807.00 C 769.51 807.00 782.99 807.00 796.47 807.00 C 796.47 785.95 796.47 764.91 796.47 743.87 C 782.99 743.87 769.51 743.85 756.04 743.87 Z" />
<path fill="#ffffff" opacity="1.00" d=" M 980.26 722.16 C 993.99 722.09 1007.73 722.15 1021.46 722.13 C 1021.46 729.37 1021.48 736.62 1021.45 743.86 C 1014.64 743.87 1007.84 743.85 1001.04 743.87 C 1001.03 772.08 1001.04 800.29 1001.03 828.50 C 994.10 828.49 987.16 828.52 980.23 828.49 C 980.25 793.04 980.19 757.60 980.26 722.16 Z" />
<path fill="#ffffff" opacity="1.00" d=" M 1055.67 722.14 C 1076.19 722.12 1096.72 722.14 1117.24 722.14 C 1117.30 729.21 1117.23 736.30 1117.29 743.38 C 1124.04 743.35 1130.80 743.37 1137.56 743.37 C 1137.57 764.72 1137.57 786.08 1137.56 807.43 C 1130.79 807.44 1124.03 807.42 1117.27 807.44 C 1117.25 814.46 1117.27 821.48 1117.27 828.50 C 1096.71 828.50 1076.15 828.50 1055.60 828.50 C 1055.60 821.48 1055.60 814.46 1055.60 807.44 C 1048.81 807.41 1042.02 807.48 1035.24 807.40 C 1035.25 786.06 1035.19 764.73 1035.26 743.39 C 1042.04 743.33 1048.81 743.38 1055.59 743.37 C 1055.64 736.29 1055.51 729.21 1055.67 722.14 M 1056.04 743.87 C 1056.03 764.92 1056.04 785.96 1056.03 807.00 C 1076.28 807.00 1096.52 807.00 1116.77 807.00 C 1116.76 785.95 1116.76 764.91 1116.77 743.87 C 1096.52 743.87 1076.28 743.86 1056.04 743.87 Z" />
<path fill="#ffffff" opacity="1.00" d=" M 1171.14 722.17 C 1191.76 722.15 1212.38 722.02 1233.00 722.24 L 1233.00 743.67 C 1212.52 744.13 1192.02 743.73 1171.54 743.87 C 1171.53 750.76 1171.53 757.64 1171.53 764.53 C 1185.15 764.54 1198.77 764.52 1212.39 764.54 C 1212.40 771.59 1212.39 778.64 1212.40 785.70 C 1219.18 785.70 1225.97 785.68 1232.76 785.71 C 1232.77 792.95 1232.77 800.18 1232.76 807.42 C 1225.97 807.45 1219.18 807.42 1212.40 807.44 C 1212.39 814.46 1212.40 821.48 1212.40 828.50 C 1191.84 828.50 1171.29 828.51 1150.74 828.50 C 1150.73 821.33 1150.71 814.16 1150.75 807.00 C 1171.16 806.99 1191.56 807.00 1211.96 807.00 C 1211.96 800.06 1211.97 793.13 1211.96 786.20 C 1198.34 786.19 1184.72 786.21 1171.10 786.19 C 1171.09 779.13 1171.09 772.06 1171.10 765.00 C 1164.31 765.00 1157.53 765.00 1150.75 765.00 C 1150.72 757.80 1150.72 750.60 1150.75 743.40 C 1157.53 743.32 1164.31 743.38 1171.09 743.36 C 1171.12 736.30 1171.05 729.23 1171.14 722.17 Z" />
</g>
</svg>
